<?xml version="1.0" standalone="no"?>
<!DOCTYPE svg PUBLIC "-//W3C//DTD SVG 20010904//EN"
 "http://www.w3.org/TR/2001/REC-SVG-20010904/DTD/svg10.dtd">
<svg version="1.0" xmlns="http://www.w3.org/2000/svg"
 width="651.000000pt" height="210.000000pt" viewBox="0 0 651.000000 210.000000"
 preserveAspectRatio="xMidYMid meet">

<g transform="translate(0.000000,210.000000) scale(0.100000,-0.100000)"
fill="#000000" stroke="none">
<path d="M3680 1835 l0 -265 -1259 0 c-829 0 -1262 -3 -1266 -10 -3 -5 -15
-10 -26 -10 -10 0 -19 5 -19 10 0 15 -20 12 -38 -7 -16 -16 -17 -16 -20 0 -4
21 -22 22 -22 2 0 -21 -18 -19 -23 3 -4 13 -5 11 -6 -5 0 -13 -7 -23 -15 -23
-8 0 -17 10 -19 23 -4 19 -4 18 -6 -5 -1 -21 -6 -28 -20 -28 -14 0 -21 8 -24
28 -4 26 -4 26 -6 -4 -1 -22 -8 -34 -25 -42 -24 -11 -25 -10 -29 31 l-4 42 -1
-43 c-2 -41 -4 -44 -48 -62 -25 -11 -47 -20 -49 -20 -2 0 -6 28 -8 63 l-3 62
-2 -67 -2 -67 -75 -50 -75 -49 -2 116 -2 117 -5 -128 -6 -129 -40 -37 c-57
-54 -122 -143 -156 -214 -25 -55 -104 -271 -174 -482 -21 -60 -145 -421 -187
-540 l-14 -40 2511 3 c1380 1 2520 5 2533 8 15 4 22 2 22 -7 0 -11 3 -11 11 1
8 11 12 12 16 3 7 -18 23 -16 23 2 0 21 18 19 23 -2 4 -14 5 -12 6 5 1 29 18
29 24 0 l4 -23 2 23 c0 12 9 25 19 28 76 25 183 73 232 105 l59 38 4 -97 3
-97 2 100 2 99 38 34 37 33 3 -130 c2 -107 5 -131 17 -131 13 0 15 24 15 148
0 140 1 148 23 172 74 80 130 190 195 380 27 80 103 298 168 485 65 187 121
365 124 395 l7 55 2 -45 c0 -25 -4 -61 -9 -80 -6 -19 -8 -47 -4 -62 6 -28 6
-28 93 -28 84 0 87 -1 103 -28 26 -44 64 -81 92 -88 14 -3 26 -10 26 -15 0 -5
18 -9 40 -9 l40 0 0 410 0 410 -1415 0 -1415 0 0 -265z m2065 -838 c-74 -214
-151 -420 -172 -460 -70 -132 -213 -254 -369 -313 -151 -57 -16 -54 -2586 -54
-1892 0 -2369 3 -2366 13 3 6 65 185 137 397 73 212 147 411 164 443 80 151
254 285 446 344 52 16 220 18 2461 23 1323 3 2408 3 2412 0 4 -3 -54 -180
-127 -393z"/>
<path d="M4972 1149 c-249 -32 -411 -163 -466 -375 -66 -258 58 -364 409 -351
159 6 235 22 332 69 154 75 263 253 263 431 0 92 -33 147 -114 189 -81 41
-267 58 -424 37z m270 -192 c20 -8 41 -24 47 -35 27 -51 0 -185 -51 -246 -41
-51 -100 -67 -257 -73 -264 -11 -322 36 -266 209 33 101 82 140 193 158 85 13
290 5 334 -13z"/>
<path d="M1000 1143 c-145 -16 -250 -97 -286 -221 -28 -97 6 -170 90 -191 27
-6 136 -11 269 -11 244 0 254 -2 241 -54 -13 -54 -25 -56 -324 -56 l-275 0
-95 -90 -95 -89 340 0 c368 -1 429 6 510 53 53 32 78 60 110 123 54 109 42
190 -34 229 -31 16 -67 19 -283 22 -267 4 -277 6 -264 58 12 47 50 54 318 54
l243 1 95 89 95 89 -310 -1 c-170 -1 -326 -3 -345 -5z"/>
<path d="M1827 1063 l-95 -88 296 -5 c216 -4 303 -9 320 -18 53 -30 9 -131
-66 -152 -21 -5 -156 -10 -314 -10 -273 0 -277 0 -302 -22 -18 -16 -41 -70
-79 -181 l-54 -158 100 3 99 3 33 90 32 90 244 5 c199 5 252 9 289 23 157 62
250 179 250 317 0 85 -27 127 -102 161 -50 22 -65 24 -305 27 l-251 4 -95 -89z"/>
<path d="M3688 1063 c-51 -48 -94 -90 -96 -93 -1 -3 128 -4 286 -2 341 3 365
-1 370 -61 3 -30 -2 -43 -26 -66 -45 -46 -83 -51 -388 -51 -254 0 -284 -2
-303 -18 -14 -11 -42 -73 -77 -170 -30 -84 -54 -157 -54 -162 0 -6 43 -10 100
-10 56 0 100 4 100 9 0 6 14 48 31 95 l31 86 187 0 187 0 30 -92 30 -93 102
-3 c56 -1 102 -1 102 1 0 2 -20 52 -45 111 -25 60 -45 111 -45 115 0 3 22 14
48 24 88 31 179 124 202 206 16 59 12 132 -10 168 -45 74 -135 93 -442 93
l-228 0 -92 -87z"/>
<path d="M2769 1113 c-14 -37 -49 -135 -49 -140 0 -1 143 -3 319 -3 l318 0 84
76 c46 42 88 81 93 85 6 5 -158 9 -372 9 l-382 0 -11 -27z"/>
<path d="M2685 853 c-12 -31 -145 -405 -145 -409 0 -2 144 -4 321 -4 l321 0
88 78 c49 42 89 79 89 82 1 3 -119 4 -266 2 -147 -1 -273 0 -279 2 -10 4 -9
17 5 58 l18 53 209 3 209 3 80 74 80 74 -361 1 c-336 0 -362 -1 -369 -17z"/>
</g>
</svg>
